<svg xmlns="http://www.w3.org/2000/svg" viewBox="0 0 576 512"><path fill="#95e1d3" d="M532 386c28-27 44-61 44-98 0-80-76-146-176-158-32-57-106-98-192-98C93 32 0 104 0 192c0 37 17 71 44 98-15 31-37 55-38 55-6 7-8 17-4 25 3 9 12 14 21 14 54 0 97-20 125-39l29 5c31 58 105 98 191 98 21 0 41-2 60-7 28 19 71 39 125 39a23 23 0 0017-39c-1 0-23-24-38-55zm-393-92l-17 11c-14 9-28 16-43 21l8-14 16-32-25-24a92 92 0 01-30-64c0-61 73-112 160-112s160 51 160 112-73 112-160 112c-16 0-33-2-49-6l-20-4zm359 58l-24 24 15 31 8 15c-14-5-29-12-43-21l-17-11-20 4c-16 4-32 6-49 6-54 0-102-20-131-50 101-10 179-77 179-158l-1-10c65 15 113 57 113 106 0 29-16 51-30 64z"/></svg>